:version 1.10
:name ASF
:units
  mass 1
  length 1
  angle deg
:documentation
  ASF file generated by Kaydara
:root
  axis xyz
  order  tx ty tz rx ry rz
  position 0 0 0
  orientation 0 0 0
:bonedata
  begin
    id 1
    name LeftUpLegDummy
    direction 1 -2.30186e-007 -8.31532e-007
    length 2.93387
    axis 0 0 0 xyz
  end
  begin
    id 2
    name LeftUpLeg
    direction -1.82929e-007 -1 -1.48925e-009
    length 17.3336
    axis -3.48766 0.00143442 -0.000521554 xyz
    dof rx ry rz
  end
  begin
    id 3
    name LeftLeg
    direction -1.82929e-007 -1 -5.23717e-011
    length 14.9995
    axis 3.68178 -0.00654042 -0.000282425 xyz
    dof rx ry rz
  end
  begin
    id 4
    name LeftFoot
    direction 8.31532e-007 -4.54534e-011 1
    length 6.74421
    axis 1.87234e-006 4.66016e-005 -5.96866e-006 xyz
    dof rx ry rz
  end
  begin
    id 5
    name LeftToes
    direction 0.00818058 -0.00485161 0.999955
    length 3.85048
    axis 1.06247e-005 4.65869e-005 -5.96999e-006 xyz
    dof rx ry rz
  end
  begin
    id 6
    name SpineDummy
    direction -5.8607e-008 0.943407 -0.331637
    length 5.93572
    axis 0 0 0 xyz
  end
  begin
    id 7
    name Spine
    direction -1.04988e-007 0.999988 0.00495137
    length 10.1015
    axis -0.001389 0.000121417 6.61666e-006 xyz
    dof rx ry rz
  end
  begin
    id 8
    name Spine1
    direction 0 0 0
    length 0
    axis -0.001389 0.00012144 6.56766e-006 xyz
    dof rx ry rz
  end
  begin
    id 9
    name RightShoulderDummy
    direction -0.98348 0.17941 -0.0240696
    length 3.59882
    axis -0.001389 0.00012144 6.56766e-006 xyz
  end
  begin
    id 10
    name RightShoulder
    direction -0.978693 0.204882 0.0135597
    length 2.70001
    axis 0.215806 0.000203631 -0.00679732 xyz
    dof rx ry rz
  end
  begin
    id 11
    name RightArm
    direction -1 3.85509e-006 8.31394e-007
    length 10.2459
    axis -23.2009 -0.134239 -0.964098 xyz
    dof rx ry rz
  end
  begin
    id 12
    name RightForeArm
    direction -1 3.85569e-006 8.3129e-007
    length 8.16799
    axis -9.92322 0.0658061 0.17887 xyz
    dof rx ry rz
  end
  begin
    id 13
    name RightHand
    direction -0.992843 -0.0414604 0.112003
    length 5.28593
    axis -0.00960638 0.00330669 -0.185225 xyz
    dof rx ry rz
  end
  begin
    id 14
    name LeftShoulder1Dummy
    direction 0.983523 0.179172 -0.0240748
    length 3.59866
    axis -0.001389 0.00012144 6.56766e-006 xyz
  end
  begin
    id 15
    name LeftShoulder1
    direction 0.978627 0.205195 0.0135605
    length 2.70019
    axis -0.001389 0.00012144 6.57583e-006 xyz
    dof rx ry rz
  end
  begin
    id 16
    name LeftArm
    direction 1 3.51895e-006 -8.60188e-007
    length 10.2459
    axis -23.1894 0.134785 0.967513 xyz
    dof rx ry rz
  end
  begin
    id 17
    name LeftForeArm
    direction 1 3.51921e-006 -7.32029e-007
    length 8.16799
    axis -9.91835 -0.0656957 -0.177789 xyz
    dof rx ry rz
  end
  begin
    id 18
    name LeftHand
    direction 0.992938 -0.0411636 0.11126
    length 5.32135
    axis -0.00960237 -0.00340661 0.185177 xyz
    dof rx ry rz
  end
  begin
    id 19
    name HEadDummy
    direction 1.01974e-006 0.999861 -0.016675
    length 2.99946
    axis -0.001389 0.00012144 6.56766e-006 xyz
  end
  begin
    id 20
    name HEad
    direction -0.0222689 0.980941 0.193023
    length 5.12695
    axis -0.001389 0.00012144 6.56766e-006 xyz
    dof rx ry rz
  end
  begin
    id 21
    name RightUpLegDummy
    direction -1 2.30186e-007 8.31532e-007
    length 2.93387
    axis 0 0 0 xyz
  end
  begin
    id 22
    name RightUpLeg
    direction -1.82966e-007 -1 1.56832e-007
    length 17.3336
    axis -3.4909 -0.000906625 0.00028951 xyz
    dof rx ry rz
  end
  begin
    id 23
    name RightLeg
    direction -1.82786e-007 -1 -1.80317e-007
    length 14.9995
    axis 3.68513 0.0193739 -0.131021 xyz
    dof rx ry rz
  end
  begin
    id 24
    name RightFoot
    direction 8.31721e-007 -4.63324e-011 1
    length 6.74421
    axis 4.81691e-005 -0.120479 -0.188785 xyz
    dof rx ry rz
  end
  begin
    id 25
    name RightToes
    direction 0.00124746 -0.014064 0.9999
    length 3.85082
    axis 0.000481921 0.542163 -0.142575 xyz
    dof rx ry rz
  end
:hierarchy
  begin
    root LeftUpLegDummy SpineDummy RightUpLegDummy
    LeftUpLegDummy LeftUpLeg
    LeftUpLeg LeftLeg
    LeftLeg LeftFoot
    LeftFoot LeftToes
    SpineDummy Spine
    Spine Spine1
    Spine1 RightShoulderDummy LeftShoulder1Dummy HEadDummy
    RightShoulderDummy RightShoulder
    RightShoulder RightArm
    RightArm RightForeArm
    RightForeArm RightHand
    LeftShoulder1Dummy LeftShoulder1
    LeftShoulder1 LeftArm
    LeftArm LeftForeArm
    LeftForeArm LeftHand
    HEadDummy HEad
    RightUpLegDummy RightUpLeg
    RightUpLeg RightLeg
    RightLeg RightFoot
    RightFoot RightToes
  end

:SAMPLES-PER-SECOND 30
:FULLY-SPECIFIED
:DEGREES
135
root  3.39533 34.5269 30.2035 6.28635 10.3419 -0.161889
LeftUpLeg  -10.4264 6.0647 0.309911
LeftLeg  12.0884 0.374303 0.0539152
LeftFoot  -0.0442197 -0.0143122 0.00927696
LeftToes  -12.7147 2.60077e-006 -1.42232e-007
Spine  1.69523 3.15681 -4.18518
Spine1  3.01093 6.37448 -8.02508
RightShoulder  -0.00138621 5.01328 0.931546
RightArm  -60.8851 27.0125 44.8359
RightForeArm  43.8474 78.4494 60.394
RightHand  4.05104 -14.9109 -29.8646
LeftShoulder1  0.0573048 -0.454352 -7.39044
LeftArm  -25.1146 14.3634 -63.9567
LeftForeArm  30.9223 -18.5601 -3.38562
LeftHand  0.0822266 2.19205 3.40458
HEad  -6.97883 -37.4511 5.36324
RightUpLeg  -9.89221 -5.52966 -6.01563
RightLeg  11.4228 4.26352 0.580363
RightFoot  3.37338 0.00194766 0.288588
RightToes  -36.0437 -0.189069 -0.294043
136
root  3.40917 34.5263 30.1898 6.3382 9.7235 -0.180686
LeftUpLeg  -10.4016 6.22029 0.28438
LeftLeg  12.0249 0.801664 0.116169
LeftFoot  -0.0523784 -0.014152 0.00798213
LeftToes  -12.6485 2.60077e-006 -1.42232e-007
Spine  1.72232 3.10178 -4.22985
Spine1  3.07856 6.24761 -8.08502
RightShoulder  -0.00143518 4.98883 0.961139
RightArm  -60.6956 26.748 45.6303
RightForeArm  40.0765 78.8779 64.5346
RightHand  4.50317 -18.5535 -26.6898
LeftShoulder1  0.0574271 -0.358592 -7.47444
LeftArm  -25.1466 13.992 -63.8805
LeftForeArm  30.7778 -18.7862 -3.43012
LeftHand  0.0818233 2.23027 3.39765
HEad  -7.19972 -37.4071 5.69167
RightUpLeg  -10.0984 -5.48591 -6.02719
RightLeg  11.4404 4.81631 0.656837
RightFoot  3.44971 0.00022712 0.327113
RightToes  -36.0672 -0.189115 -0.294146
137
root  3.41774 34.5236 30.172 6.37179 9.18258 -0.213909
LeftUpLeg  -10.392 6.28379 0.274557
LeftLeg  11.9863 1.27371 0.184512
LeftFoot  -0.084316 -0.0139644 0.00629871
LeftToes  -12.543 2.60077e-006 -1.42232e-007
Spine  1.76945 3.04796 -4.26163
Spine1  3.18236 6.12858 -8.1214
RightShoulder  -0.00144553 5.01122 1.06044
RightArm  -60.1648 26.3237 46.3302
RightForeArm  38.0602 79.1612 67.8518
RightHand  4.43471 -20.8424 -23.4005
LeftShoulder1  0.0576272 -0.348364 -7.57476
LeftArm  -25.2923 13.673 -63.798
LeftForeArm  30.6841 -18.845 -3.44175
LeftHand  0.0821417 2.20251 3.43005
HEad  -7.38751 -37.3048 5.97071
RightUpLeg  -10.3201 -5.43616 -6.01494
RightLeg  11.5477 5.2939 0.731788
RightFoot  3.48725 -0.00121306 0.359827
RightToes  -36.0251 -0.189165 -0.294246
138
root  3.4356 34.5198 30.1546 6.38067 8.66499 -0.238849
LeftUpLeg  -10.4439 6.54026 0.237927
LeftLeg  12.1352 1.54006 0.227449
LeftFoot  -0.196885 -0.0137268 0.0038746
LeftToes  -12.4514 2.60077e-006 -1.42232e-007
Spine  1.81345 3.0336 -4.28399
Spine1  3.26576 6.0973 -8.14894
RightShoulder  -0.00145873 5.20912 1.28388
RightArm  -59.3852 25.9727 46.3187
RightForeArm  34.7146 79.3247 69.9975
RightHand  4.63478 -22.4158 -22.7095
LeftShoulder1  0.0579205 -0.407195 -7.69934
LeftArm  -25.2713 13.4426 -63.6959
LeftForeArm  30.561 -18.7599 -3.42508
LeftHand  0.0823488 2.23623 3.48089
HEad  -7.49771 -37.1504 6.04728
RightUpLeg  -10.5003 -5.48739 -6.02621
RightLeg  11.642 5.85568 0.818904
RightFoot  3.53889 -0.00329991 0.40122
RightToes  -36.0406 -0.189225 -0.294347
139
root  3.45047 34.5135 30.1277 6.38245 8.09886 -0.251236
LeftUpLeg  -10.4826 6.80044 0.195042
LeftLeg  12.2515 1.85148 0.277538
LeftFoot  -0.302026 -0.013374 -0.000302438
LeftToes  -12.2961 2.60077e-006 -1.42232e-007
Spine  1.84243 3.04847 -4.3227
Spine1  3.3158 6.12649 -8.2129
RightShoulder  -0.00141576 5.34559 1.40858
RightArm  -59.0501 25.9707 46.4143
RightForeArm  30.8053 79.2626 68.967
RightHand  4.53912 -23.7437 -20.9776
LeftShoulder1  0.0582996 -0.411818 -7.78149
LeftArm  -25.2871 13.2373 -63.6008
LeftForeArm  30.7082 -18.532 -3.38024
LeftHand  0.0827921 2.24553 3.54387
HEad  -7.74428 -36.9327 6.12774
RightUpLeg  -10.7142 -5.36129 -6.05035
RightLeg  11.7585 6.27345 0.890026
RightFoot  3.56638 -0.00479226 0.43212
RightToes  -36.0207 -0.189299 -0.294452
140
root  3.47062 34.5067 30.1063 6.36145 7.55915 -0.259601
LeftUpLeg  -10.495 7.06247 0.144772
LeftLeg  12.3803 2.11573 0.322184
LeftFoot  -0.42379 -0.0129361 -0.00576648
LeftToes  -12.257 2.60077e-006 -1.42232e-007
Spine  1.87002 3.06927 -4.36569
Spine1  3.36844 6.1671 -8.28522
RightShoulder  -0.00132591 5.44112 1.45536
RightArm  -58.9522 26.1513 46.3999
RightForeArm  25.2509 79.0318 65.8528
RightHand  4.31233 -25.1983 -18.7487
LeftShoulder1  0.0587568 -0.414334 -7.81927
LeftArm  -25.3887 13.1299 -63.5287
LeftForeArm  30.9171 -18.2338 -3.32174
LeftHand  0.082688 2.24414 3.55709
HEad  -8.0487 -36.6646 6.28627
RightUpLeg  -10.8718 -5.25224 -6.08392
RightLeg  11.8429 6.69228 0.959176
RightFoot  3.6244 -0.00660556 0.466836
RightToes  -36.1159 -0.189391 -0.294563
141
root  3.49363 34.4998 30.0847 6.34114 7.04014 -0.267688
LeftUpLeg  -10.4919 7.25097 0.0943595
LeftLeg  12.4705 2.42931 0.374025
LeftFoot  -0.53706 -0.0124307 -0.0122453
LeftToes  -12.1936 2.60077e-006 -1.42232e-007
Spine  1.88499 3.11215 -4.41042
Spine1  3.39274 6.25461 -8.36614
RightShoulder  -0.00117202 5.4624 1.50818
RightArm  -58.5146 26.4192 46.1839
RightForeArm  19.8868 78.6939 62.1189
RightHand  4.28454 -25.6727 -18.2714
LeftShoulder1  0.0592845 -0.415911 -7.89929
LeftArm  -25.5358 13.1057 -63.4088
LeftForeArm  31.0524 -17.9513 -3.26656
LeftHand  0.0812737 2.37349 3.51594
HEad  -8.3369 -36.3811 6.43929
RightUpLeg  -10.9679 -5.06509 -6.12917
RightLeg  11.8036 7.02584 1.00184
RightFoot  3.69345 -0.00828356 0.498382
RightToes  -36.1474 -0.189506 -0.294684
142
root  3.51727 34.4938 30.063 6.31465 6.58191 -0.294938
LeftUpLeg  -10.4887 7.38232 0.0706547
LeftLeg  12.6001 2.71987 0.425183
LeftFoot  -0.667725 -0.0118079 -0.0205147
LeftToes  -12.1223 2.60077e-006 -1.42232e-007
Spine  1.88495 3.15932 -4.45748
Spine1  3.38729 6.35239 -8.45716
RightShoulder  -0.000972565 5.43558 1.50534
RightArm  -58.1697 26.7666 45.929
RightForeArm  14.4286 78.1468 57.3053
RightHand  4.23578 -26.122 -17.7403
LeftShoulder1  0.059875 -0.417241 -7.93271
LeftArm  -25.7673 13.2064 -63.3033
LeftForeArm  31.2065 -17.6774 -3.2132
LeftHand  0.0814918 2.3745 3.56116
HEad  -8.67674 -36.1476 6.64287
RightUpLeg  -11.0371 -4.95349 -6.15544
RightLeg  11.7389 7.37558 1.04296
RightFoot  3.78245 -0.0103072 0.534321
RightToes  -36.2293 -0.189649 -0.294818
143
root  3.53999 34.4892 30.0412 6.30358 6.19298 -0.322172
LeftUpLeg  -10.4863 7.46615 0.0470219
LeftLeg  12.6295 3.01115 0.472409
LeftFoot  -0.750147 -0.0112711 -0.0274155
LeftToes  -12.0343 2.60077e-006 -1.42232e-007
Spine  1.87728 3.20709 -4.50468
Spine1  3.36742 6.4515 -8.54958
RightShoulder  -0.000761493 5.45509 1.48272
RightArm  -57.9949 27.0461 45.517
RightForeArm  8.78716 77.4601 52.5226
RightHand  4.15314 -26.6967 -17.0024
LeftShoulder1  0.0605208 -0.418307 -7.97167
LeftArm  -26.0284 13.3498 -63.1678
LeftForeArm  31.4633 -17.3886 -3.15707
LeftHand  0.0819287 2.32303 3.60312
HEad  -8.95578 -35.8862 6.7828
RightUpLeg  -11.0955 -4.87682 -6.17204
RightLeg  11.6435 7.67657 1.07228
RightFoot  3.90011 -0.0124915 0.571875
RightToes  -36.3267 -0.189824 -0.294967
144
root  3.56384 34.4845 30.0209 6.31889 5.90889 -0.328043
LeftUpLeg  -10.4885 7.61155 -0.00966131
LeftLeg  12.5854 3.14792 0.491437
LeftFoot  -0.792034 -0.0109785 -0.0304876
LeftToes  -12.0543 2.60077e-006 -1.42232e-007
Spine  1.8625 3.24577 -4.54611
Spine1  3.33686 6.53038 -8.62843
RightShoulder  -0.000512982 5.45689 1.49824
RightArm  -57.4693 27.1339 44.8692
RightForeArm  5.48885 76.9361 49.5027
RightHand  4.17707 -27.0232 -16.8855
LeftShoulder1  0.0612142 -0.404656 -8.00995
LeftArm  -26.2043 13.5187 -63.0314
LeftForeArm  31.6679 -17.1168 -3.10444
LeftHand  0.0818705 2.35451 3.63934
HEad  -9.12569 -35.5208 6.87857
RightUpLeg  -11.1147 -4.82927 -6.20528
RightLeg  11.4644 7.89799 1.07796
RightFoot  4.03783 -0.0146138 0.60769
RightToes  -36.4475 -0.190027 -0.295135
145
root  3.58729 34.4787 30.0054 6.33492 5.69987 -0.336571
LeftUpLeg  -10.5022 7.7349 -0.0529043
LeftLeg  12.5816 3.21477 0.501673
LeftFoot  -0.860558 -0.0106432 -0.0341918
LeftToes  -11.9849 2.60077e-006 -1.42232e-007
Spine  1.82892 3.28211 -4.57964
Spine1  3.27255 6.60182 -8.69097
RightShoulder  -0.000207381 5.38646 1.58144
RightArm  -56.7046 27.1628 44.1003
RightForeArm  4.05661 76.4269 46.9636
RightHand  4.03887 -27.3056 -16.1456
LeftShoulder1  0.0619476 -0.393581 -8.02509
LeftArm  -26.4942 13.7147 -62.9207
LeftForeArm  31.8621 -16.7849 -3.04041
LeftHand  0.0820517 2.39563 3.69995
HEad  -9.19018 -35.1217 6.87572
RightUpLeg  -11.1218 -4.75731 -6.24176
RightLeg  11.3067 8.02889 1.07331
RightFoot  4.12985 -0.0160004 0.631403
RightToes  -36.572 -0.190249 -0.295325
146
root  3.60742 34.4725 29.9947 6.32175 5.58023 -0.357014
LeftUpLeg  -10.5426 7.75857 -0.0609529
LeftLeg  12.701 3.27094 0.517425
LeftFoot  -0.961177 -0.0104279 -0.0360021
LeftToes  -12.0345 2.60077e-006 -1.42232e-007
Spine  1.79637 3.31446 -4.60616
Spine1  3.20919 6.66708 -8.74275
RightShoulder  0.000122712 5.31445 1.69074
RightArm  -55.9598 27.0513 43.2787
RightForeArm  2.62316 75.889 44.5857
RightHand  3.73756 -27.8576 -14.6164
LeftShoulder1  0.0627134 -0.338148 -8.06497
LeftArm  -26.7313 13.8988 -62.7602
LeftForeArm  32.1003 -16.4929 -2.98423
LeftHand  0.0818739 2.39252 3.71234
HEad  -9.16089 -34.6059 6.82606
RightUpLeg  -11.1481 -4.71815 -6.26023
RightLeg  11.304 8.11279 1.08406
RightFoot  4.15769 -0.0166492 0.64308
RightToes  -36.6683 -0.190487 -0.295539
147
root  3.62733 34.4674 29.9908 6.29797 5.59837 -0.367992
LeftUpLeg  -10.5835 7.7531 -0.0789273
LeftLeg  12.8313 3.24281 0.520506
LeftFoot  -1.0572 -0.0102365 -0.0374091
LeftToes  -11.9654 2.60077e-006 -1.42232e-007
Spine  1.77484 3.3367 -4.62842
Spine1  3.16688 6.71388 -8.78651
RightShoulder  0.000473994 5.23855 1.81417
RightArm  -54.9963 26.7025 42.4883
RightForeArm  2.59337 75.6647 43.6796
RightHand  3.5925 -28.0149 -13.9573
LeftShoulder1  0.063504 -0.311275 -8.11198
LeftArm  -27.0343 14.05 -62.5817
LeftForeArm  32.3348 -16.2222 -2.93229
LeftHand  0.0815501 2.42662 3.72869
HEad  -9.16846 -34.1115 6.76554
RightUpLeg  -11.1503 -4.73881 -6.2862
RightLeg  11.3567 8.1097 1.09121
RightFoot  4.14714 -0.0165773 0.643085
RightToes  -36.721 -0.190742 -0.295774
148
root  3.64463 34.4626 29.992 6.28127 5.68433 -0.368593
LeftUpLeg  -10.5954 7.72349 -0.104796
LeftLeg  12.8883 3.18913 0.515126
LeftFoot  -1.13205 -0.0100683 -0.0384268
LeftToes  -11.9433 2.60077e-006 -1.42232e-007
Spine  1.76422 3.3427 -4.65558
Spine1  3.15136 6.72631 -8.83551
RightShoulder  0.000823622 5.17858 1.84721
RightArm  -54.1346 26.2551 42.0119
RightForeArm  6.63406 75.854 44.5013
RightHand  3.50009 -27.7052 -13.753
LeftShoulder1  0.0643117 -0.285832 -8.13408
LeftArm  -27.2637 14.2024 -62.3786
LeftForeArm  32.428 -16.0562 -2.90056
LeftHand  0.0814381 2.47088 3.76644
HEad  -9.36006 -33.5879 6.77748
RightUpLeg  -11.1512 -4.6729 -6.31999
RightLeg  11.4419 7.95707 1.0828
RightFoot  4.09552 -0.0154364 0.626105
RightToes  -36.8865 -0.191012 -0.296022
149
root  3.66229 34.4565 29.9977 6.25959 5.83831 -0.359653
LeftUpLeg  -10.6151 7.66101 -0.133264
LeftLeg  12.9771 3.08846 0.503733
LeftFoot  -1.2107 -0.00992249 -0.0390694
LeftToes  -11.8916 2.60077e-006 -1.42232e-007
Spine  1.74812 3.35401 -4.67994
Spine1  3.12825 6.74424 -8.87193
RightShoulder  0.00119551 5.10123 1.92118
RightArm  -53.7441 25.8184 41.674
RightForeArm  8.94137 75.9999 45.1444
RightHand  3.42141 -27.6961 -13.4431
LeftShoulder1  0.0651289 -0.267455 -8.15927
LeftArm  -27.4832 14.3183 -62.1885
LeftForeArm  32.5607 -15.9194 -2.87439
LeftHand  0.0813429 2.45818 3.78062
HEad  -9.5033 -33.0628 6.78236
RightUpLeg  -11.1556 -4.62761 -6.36699
RightLeg  11.5968 7.77011 1.07883
RightFoot  4.00412 -0.013821 0.601466
RightToes  -36.9025 -0.191295 -0.296283
